<?xml version="1.0" encoding="utf-8"?>
<!-- Generator: Adobe Illustrator 27.7.0, SVG Export Plug-In . SVG Version: 6.00 Build 0)  -->
<svg version="1.1" id="Layer_1" xmlns="http://www.w3.org/2000/svg" xmlns:xlink="http://www.w3.org/1999/xlink" x="0px" y="0px"
	 viewBox="0 0 512 512" style="enable-background:new 0 0 512 512;" xml:space="preserve">
<g>
	<path d="M268,395.68l-88.8,29.6l0-182.08c0-6.34-2.39-12.53-6.66-17.22L57.85,99.82l0,0c-4.28-4.71-6.66-10.85-6.66-17.22l0,0V51.2
		h358.4l0,30l0-0.01c0,6.79-2.7,13.3-7.5,18.1l0,0l-113,113c-10,10-10,26.21,0,36.2c10,10,26.21,10,36.2,0l113-113l0,0
		c14.4-14.4,22.5-33.93,22.5-54.3l0-0.01V25.6c0-6.74-2.73-13.34-7.5-18.1C448.54,2.73,441.94,0,435.2,0H25.6
		C18.86,0,12.26,2.73,7.5,7.5S0,18.86,0,25.6v57.01l0,0c0,19.1,7.12,37.51,19.97,51.65l0,0L128,253.1l0,207.7
		c0,8.22,3.97,15.96,10.63,20.77c6.66,4.8,15.27,6.12,23.06,3.52l122.5-40.83c13.41-4.47,20.66-18.97,16.19-32.38
		C295.91,398.46,281.41,391.21,268,395.68L268,395.68z"/>
	<path d="M504.5,468.3l-128-128c-10-10-26.21-10-36.2,0c-10,10-10,26.21,0,36.2l128,128c10,10,26.21,10,36.2,0
		S514.5,478.3,504.5,468.3"/>
	<path d="M376.5,504.5l128-128c10-10,10-26.21,0-36.2c-10-10-26.21-10-36.2,0l-128,128c-10,10-10,26.21,0,36.2
		S366.5,514.5,376.5,504.5"/>
</g>
</svg>
